<?xml version="1.0" encoding="utf-8"?>
<!-- Generator: Adobe Illustrator 19.0.0, SVG Export Plug-In . SVG Version: 6.00 Build 0)  -->
<svg version="1.1" id="Layer_1" xmlns="http://www.w3.org/2000/svg" xmlns:xlink="http://www.w3.org/1999/xlink" x="0px" y="0px"
	 viewBox="-359.5 301.4 449.9 159.5" style="enable-background:new -359.5 301.4 449.9 159.5;" xml:space="preserve">
<style type="text/css">
	.st0{fill:#013755;}
</style>
<g>
	<g>
		<path class="st0" d="M-217.4,328.9c0.8-2.8,2.6-3.8,5.3-3.1c2.8,0.8,4,2.5,3.3,5.3l-33.9,126.4c-0.7,2.8-2.6,3.8-5.4,3
			c-2.8-0.8-3.9-2.5-3.2-5.3L-217.4,328.9z"/>
	</g>
	<g>
		<path class="st0" d="M-145.5,328.9c0.8-2.8,2.6-3.8,5.3-3c2.8,0.8,4,2.5,3.3,5.3l-33.9,126.4c-0.8,2.8-2.6,3.8-5.4,3
			c-2.8-0.8-3.9-2.5-3.2-5.3L-145.5,328.9z"/>
	</g>
	<g>
		<path class="st0" d="M-359.5,310.7c0-2.9,1.4-4.3,4.2-4.3c2.9,0,4.3,1.4,4.3,4.3v73.7h37.4c2.9,0,4.3,1.4,4.3,4.2
			c0,2.9-1.4,4.3-4.3,4.3h-40.2c-3.8,0-5.7-2.2-5.7-6.6V310.7z"/>
		<path class="st0" d="M-277.8,326.6c15.5,0,23.7,9.3,23.7,21.1v41.9c0,2.2-1.5,4.3-4.3,4.3s-4.2-2-4.3-4.2c-0.1-2.2-0.1-2.9-0.1-4
			c-5,5.4-12.5,8.2-19.9,8.2c-11.4,0-22.4-6.4-22.4-19.5c0-13.6,12.5-20.6,24.7-20.6c6.6,0,13.8,2,17.6,5.8v-11.1
			c0-8-6.5-13.4-17.5-13.4c-7.6,0-12.5,2.8-16.1,2.8c-2,0-4-0.9-4-3.6c0-1.5,1.3-3.4,3.3-4.2C-292.1,328-285.9,326.6-277.8,326.6z
			 M-281.3,385.7c8.9,0,18.3-4.7,18.3-12.7c0-7.1-8.9-11.2-17.5-11.2c-8.2,0-16,3.7-16,11.9C-296.5,382.1-289.3,385.7-281.3,385.7z"
			/>
		<path class="st0" d="M-113.1,301.4c3.3,0,5.8,2.6,5.8,5.8c0,3.3-2.6,5.8-5.8,5.8s-5.8-2.6-5.8-5.8
			C-118.9,303.9-116.3,301.4-113.1,301.4z M-117.2,331c0-2.9,1.5-4.3,4.3-4.3c2.9,0,4.5,1.4,4.5,4.3v57.6c0,2.9-1.5,4.3-4.4,4.3
			c-2.9,0-4.4-1.4-4.4-4.3V331z"/>
		<path class="st0" d="M-86.3,331.8c0-3,1.4-4.5,4.2-4.5c2.9,0,4.3,1.5,4.3,4.5v4.4c3.8-7,10.6-10.1,17.5-10.1
			c11.2,0,22.7,8.4,22.7,22.3v40.3c0,2.8-1.4,4.2-4.3,4.2c-2.8,0-4.2-1.4-4.2-4.2v-36.6c0-11.8-7.8-17.5-15.6-17.5
			c-8,0-16.1,5.9-16.1,17.5v36.6c0,2.8-1.4,4.2-4.3,4.2c-2.8,0-4.2-1.4-4.2-4.2C-86.3,388.7-86.3,331.8-86.3,331.8z"/>
		<path class="st0" d="M4.1,326.6c15.5,0,23.7,9.3,23.7,21.1v41.9c0,2.2-1.5,4.3-4.3,4.3c-2.8,0-4.2-2-4.3-4.2
			c-0.1-2.2-0.1-2.9-0.1-4c-5,5.4-12.5,8.2-19.9,8.2c-11.4,0-22.4-6.4-22.4-19.5c0-13.6,12.5-20.6,24.7-20.6c6.6,0,13.8,2,17.6,5.8
			v-11.1c0-8-6.5-13.4-17.5-13.4c-7.6,0-12.5,2.8-16.1,2.8c-2,0-4-0.9-4-3.6c0-1.5,1.3-3.4,3.3-4.2C-10.2,328-4,326.6,4.1,326.6z
			 M0.6,385.7c8.9,0,18.3-4.7,18.3-12.7c0-7.1-8.9-11.2-17.5-11.2c-8.2,0-16,3.7-16,11.9C-14.6,382.1-7.4,385.7,0.6,385.7z"/>
		<path class="st0" d="M66.5,385.6c6.3,0,14.3-2.6,14.3-10.1c0-5.7-7.2-9-13.4-11.2c-10.6-3.8-23.4-9-23.4-18.9
			c0-13.2,11.1-19,23.4-19c6.1,0,12.5,1.2,18.1,4.2c1.5,0.8,2.2,2.4,2.2,4.1c0,2.7-1.8,4.1-4,4.1c-0.8,0-1.7-0.2-2.6-0.7
			c-2.8-1.6-8.5-3-14-3c-6.9,0-14,2.4-14,9.3c0,5.4,9.1,8.2,17.8,11.8c9.6,4,19.4,8,19.4,18.5c0,14.3-12.6,19.6-24.1,19.6
			c-8.4,0-15.2-2.8-21.6-6.9c-1-0.7-1.5-2.1-1.5-3.5c0-3.3,1.6-4.8,3.8-4.8c1,0,2.2,0.5,3.4,1.3C54.5,383,60,385.6,66.5,385.6z"/>
	</g>
	<path class="st0" d="M-186.4,344.2c0.8-2.8,2.6-3.8,5.3-3c2.8,0.8,4,2.5,3.3,5.3l-14.9,55.7c-0.8,2.8-2.6,3.8-5.4,3
		c-2.8-0.8-3.9-2.5-3.2-5.3L-186.4,344.2z"/>
</g>
</svg>
